<svg xmlns="http://www.w3.org/2000/svg" xmlns:xlink="http://www.w3.org/1999/xlink" width="15" height="24" viewBox="0 0 15 24">
    <defs>
        <path id="a" d="M.873.97H6.1V6H.873z"/>
    </defs>
    <g fill="none" fill-rule="evenodd">
        <g transform="translate(3 18)">
            <mask id="b" fill="#fff">
                <use xlink:href="#a"/>
            </mask>
            <path fill="#6A8E9B" d="M3.49 5.991a2.7 2.7 0 0 1-1.94-.65 2.44 2.44 0 0 1-.67-1.86 2.5 2.5 0 0 1 .65-1.88 2.753 2.753 0 0 1 2-.62 2.62 2.62 0 0 1 1.91.64 2.92 2.92 0 0 1 0 3.7 2.568 2.568 0 0 1-1.95.67" mask="url(#b)"/>
        </g>
        <path fill="#6A8E9B" d="M4.525 16v-.885A5.042 5.042 0 0 1 5.18 12.5a8.806 8.806 0 0 1 2.472-2.416 10.95 10.95 0 0 0 2.462-2.118 3.249 3.249 0 0 0 .644-1.989 2.228 2.228 0 0 0-1.022-1.989 4.39 4.39 0 0 0-2.513-.636c-1.997.083-3.949.603-5.71 1.521L0 1.89A16.409 16.409 0 0 1 7.651.011a8.493 8.493 0 0 1 5.394 1.581 4.978 4.978 0 0 1 1.951 4.137 5.426 5.426 0 0 1-.807 2.983 11.824 11.824 0 0 1-3.167 2.913 10.212 10.212 0 0 0-2.176 1.9 3.104 3.104 0 0 0-.5 1.819v.646h-3.83l.01.01z"/>
    </g>
</svg>
