<svg width="18" height="20" viewBox="0 0 18 20" fill="none" xmlns="http://www.w3.org/2000/svg">
<path fill-rule="evenodd" clip-rule="evenodd" d="M12.0115 9.80057C12.2832 9.54396 12.7141 9.54396 12.9859 9.80057C13.2645 10.0637 13.2722 10.4977 13.0031 10.7701L9.49654 14.1986L9.49526 14.1998C9.22105 14.4672 8.777 14.4667 8.50345 14.1986L4.99688 10.7701C4.73438 10.5044 4.73438 10.0831 4.99688 9.8174C5.26595 9.545 5.70992 9.53749 5.98853 9.80057L8.29798 12.0586V0.685703C8.29798 0.306994 8.61197 0 8.99931 0C9.38665 0 9.70064 0.306994 9.70064 0.685703V12.0585L12.0115 9.80057ZM12.4615 6H15.9231C17.0701 6 18 6.93313 18 8.08421V17.1158C18 18.2669 17.0701 19.2 15.9231 19.2H2.07692C0.92987 19.2 0 18.2669 0 17.1158V8.08421C0 6.93313 0.92987 6 2.07692 6H5.53845C5.92082 6 6.23077 6.311 6.23077 6.69471C6.23077 7.07841 5.92082 7.38946 5.53845 7.38946H2.07692C1.69456 7.38946 1.3846 7.7005 1.3846 8.08421V17.1158C1.3846 17.4995 1.69456 17.8106 2.07692 17.8106H15.9231C16.3054 17.8106 16.6154 17.4995 16.6154 17.1158V8.08425C16.6154 7.70054 16.3054 7.3895 15.9231 7.3895H12.4615C12.0792 7.3895 11.7692 7.07846 11.7692 6.69475C11.7692 6.31104 12.0792 6 12.4615 6Z" fill="#1B4E8D"/>
</svg>
