<svg width="56" height="50" viewBox="0 0 56 50" fill="none" xmlns="http://www.w3.org/2000/svg">
<path d="M24.4106 8.81746C25.9868 7.17704 28.1812 6.15961 30.6081 6.15961C33.8343 6.15961 36.649 7.9565 38.1479 10.624C39.4505 10.0427 40.8923 9.71933 42.4093 9.71933C48.228 9.71933 52.9454 14.4724 52.9454 20.3353C52.9454 26.1988 48.228 30.9519 42.4093 30.9519C41.7123 30.9523 41.0171 30.8831 40.3339 30.7453C39.014 33.0971 36.4986 34.6861 33.6115 34.6861C32.4029 34.6861 31.2598 34.4073 30.2419 33.9115C28.9038 37.0553 25.7863 39.2597 22.1528 39.2597C18.369 39.2597 15.1443 36.8683 13.9065 33.5144C13.3655 33.6291 12.8051 33.6889 12.23 33.6889C7.72497 33.689 4.07272 30.0034 4.07272 25.4562C4.07272 22.409 5.71365 19.7483 8.15171 18.3249C7.64978 17.1713 7.37058 15.898 7.37058 14.5593C7.37058 9.32992 11.6208 5.09082 16.8632 5.09082C19.941 5.09082 22.6764 6.55254 24.4106 8.81746Z" fill="#00A1E0"/>
<path d="M11.0855 22.8132C11.0549 22.8935 11.0967 22.9103 11.1064 22.9242C11.1984 22.9912 11.2918 23.0394 11.3858 23.0931C11.8845 23.3582 12.3555 23.4357 12.848 23.4357C13.8511 23.4357 14.4738 22.9011 14.4738 22.0407V22.0239C14.4738 21.2283 13.771 20.9394 13.1113 20.7308L13.0256 20.7029C12.5282 20.541 12.0991 20.4014 12.0991 20.0734V20.056C12.0991 19.7755 12.3499 19.5689 12.7386 19.5689C13.1705 19.5689 13.6832 19.7126 14.0134 19.8955C14.0134 19.8955 14.1102 19.9583 14.1457 19.8641C14.1652 19.8138 14.3324 19.363 14.3499 19.3142C14.3687 19.2611 14.3352 19.222 14.3011 19.2011C13.9242 18.9715 13.4032 18.8145 12.864 18.8145L12.7637 18.8151C11.8456 18.8151 11.2048 19.3706 11.2048 20.1669V20.1837C11.2048 21.0232 11.9118 21.2953 12.5743 21.4851L12.6809 21.518C13.1636 21.6666 13.5795 21.7943 13.5795 22.1349V22.1516C13.5795 22.4629 13.3092 22.6945 12.8731 22.6945C12.7039 22.6945 12.164 22.6911 11.581 22.3218C11.5106 22.2806 11.4695 22.2507 11.4152 22.2179C11.3866 22.1997 11.3149 22.1683 11.2835 22.2632L11.0855 22.8132ZM25.7704 22.8132C25.7397 22.8935 25.7815 22.9103 25.7913 22.9242C25.8832 22.9912 25.9766 23.0394 26.0706 23.0931C26.5693 23.3582 27.0403 23.4357 27.5328 23.4357C28.5358 23.4357 29.1586 22.9011 29.1586 22.0407V22.0239C29.1586 21.2283 28.4558 20.9394 27.7961 20.7308L27.7104 20.7029C27.213 20.541 26.7839 20.4014 26.7839 20.0734V20.056C26.7839 19.7755 27.0347 19.5689 27.4234 19.5689C27.8552 19.5689 28.3679 19.7126 28.6982 19.8955C28.6982 19.8955 28.795 19.9583 28.8305 19.8641C28.85 19.8138 29.0172 19.363 29.0346 19.3142C29.0534 19.2611 29.02 19.222 28.9858 19.2011C28.609 18.9715 28.0879 18.8145 27.5488 18.8145L27.4484 18.8151C26.5303 18.8151 25.8895 19.3706 25.8895 20.1669V20.1837C25.8895 21.0232 26.5965 21.2953 27.259 21.4851L27.3656 21.518C27.8483 21.6666 28.2649 21.7943 28.2649 22.1349V22.1516C28.2649 22.4629 27.9939 22.6945 27.5578 22.6945C27.3886 22.6945 26.8487 22.6911 26.2657 22.3218C26.1953 22.2806 26.1536 22.2521 26.1006 22.2179C26.0825 22.206 25.9975 22.1732 25.9682 22.2632L25.7704 22.8132ZM35.7953 21.1278C35.7953 21.6142 35.7048 21.9973 35.5265 22.268C35.3502 22.536 35.0834 22.6665 34.7115 22.6665C34.3388 22.6665 34.0734 22.5367 33.9 22.268C33.7244 21.998 33.6353 21.6142 33.6353 21.1278C33.6353 20.6421 33.7244 20.2596 33.9 19.9916C34.0734 19.7265 34.3388 19.5974 34.7115 19.5974C35.0835 19.5974 35.3502 19.7265 35.5272 19.9916C35.7048 20.2596 35.7953 20.642 35.7953 21.1278ZM36.6327 20.2261C36.5504 19.9476 36.4223 19.702 36.2517 19.4976C36.081 19.2924 35.865 19.1277 35.6087 19.0077C35.353 18.8884 35.0507 18.8276 34.7115 18.8276C34.3715 18.8276 34.0692 18.8884 33.8136 19.0077C33.5572 19.1277 33.3413 19.2924 33.1699 19.4976C33 19.7027 32.8718 19.9484 32.7889 20.2261C32.7074 20.5031 32.6663 20.806 32.6663 21.1278C32.6663 21.4495 32.7074 21.753 32.7889 22.0294C32.8718 22.3071 32.9993 22.5528 33.1707 22.7579C33.3413 22.9631 33.5579 23.1271 33.8136 23.2436C34.0699 23.3602 34.3715 23.4195 34.7115 23.4195C35.0508 23.4195 35.3524 23.3602 35.6087 23.2436C35.8644 23.1271 36.081 22.9631 36.2517 22.7579C36.4223 22.5535 36.5505 22.3078 36.6327 22.0294C36.715 21.7524 36.756 21.4488 36.756 21.1278C36.756 20.8067 36.7149 20.5031 36.6327 20.2261ZM43.5085 22.5366C43.4807 22.455 43.4019 22.4857 43.4019 22.4857C43.2801 22.5325 43.1504 22.5757 43.0125 22.5973C42.8725 22.6189 42.7186 22.6301 42.5534 22.6301C42.1481 22.6301 41.8263 22.5094 41.5957 22.2707C41.3644 22.0321 41.2348 21.6462 41.2362 21.1242C41.2376 20.6489 41.3518 20.2916 41.5574 20.0195C41.7615 19.7487 42.0722 19.6098 42.4866 19.6098C42.8322 19.6098 43.0955 19.6496 43.3713 19.7368C43.3713 19.7368 43.4374 19.7654 43.4688 19.6789C43.5419 19.4751 43.5962 19.3293 43.6743 19.1053C43.6966 19.0417 43.6422 19.0145 43.6227 19.0068C43.514 18.9643 43.2577 18.8952 43.064 18.8659C42.8829 18.838 42.6712 18.8233 42.4357 18.8233C42.0839 18.8233 41.7704 18.8834 41.5023 19.0034C41.2348 19.1227 41.0077 19.2874 40.828 19.4926C40.6483 19.6978 40.5118 19.9434 40.4205 20.2211C40.33 20.4981 40.284 20.8024 40.284 21.1242C40.284 21.8199 40.4714 22.3824 40.8413 22.7941C41.2118 23.2073 41.7684 23.4173 42.4943 23.4173C42.9234 23.4173 43.3637 23.3301 43.6799 23.2052C43.6799 23.2052 43.7405 23.1758 43.7141 23.1054L43.5085 22.5366ZM44.9735 20.6618C45.0132 20.3917 45.0878 20.167 45.2027 19.9919C45.3762 19.726 45.6409 19.5801 46.0129 19.5801C46.3849 19.5801 46.6308 19.7267 46.807 19.9919C46.924 20.167 46.9749 20.4015 46.9951 20.6618H44.9735ZM47.7926 20.0679C47.7216 19.7992 47.5453 19.5277 47.4297 19.4035C47.2472 19.2067 47.0689 19.0693 46.892 18.9925C46.6607 18.8934 46.3834 18.8278 46.0797 18.8278C45.7259 18.8278 45.4047 18.8871 45.1442 19.0099C44.883 19.1328 44.6636 19.3003 44.4915 19.5089C44.3194 19.7169 44.1899 19.9646 44.1077 20.2458C44.0248 20.5257 43.983 20.8307 43.983 21.1523C43.983 21.4797 44.0262 21.7846 44.1119 22.0588C44.1983 22.3352 44.3362 22.5788 44.5228 22.7804C44.7088 22.9835 44.9485 23.1426 45.2355 23.2535C45.5204 23.3638 45.8666 23.421 46.2643 23.4203C47.0829 23.4175 47.514 23.2347 47.6917 23.1363C47.723 23.1189 47.753 23.0882 47.7153 23.0002L47.53 22.4803C47.5022 22.4029 47.4235 22.4314 47.4235 22.4314C47.2207 22.5068 46.9324 22.6422 46.2601 22.6408C45.8206 22.6402 45.4945 22.5103 45.2904 22.3072C45.0808 22.0993 44.9784 21.7936 44.9603 21.3624L47.7947 21.3651C47.7947 21.3651 47.8692 21.3638 47.8769 21.2911C47.8797 21.2605 47.9745 20.7078 47.7926 20.0679ZM22.2738 20.6618C22.3142 20.3917 22.388 20.167 22.503 19.9919C22.6764 19.726 22.9411 19.5801 23.3131 19.5801C23.6851 19.5801 23.931 19.7267 24.1079 19.9919C24.2242 20.167 24.2751 20.4015 24.2953 20.6618H22.2738ZM25.0922 20.0679C25.0212 19.7992 24.8456 19.5277 24.73 19.4035C24.5475 19.2067 24.3691 19.0693 24.1922 18.9925C23.9609 18.8934 23.6837 18.8278 23.38 18.8278C23.0268 18.8278 22.705 18.8871 22.4445 19.0099C22.1833 19.1328 21.9638 19.3003 21.7918 19.5089C21.6197 19.7169 21.4902 19.9646 21.408 20.2458C21.3258 20.5257 21.2833 20.8307 21.2833 21.1523C21.2833 21.4797 21.3265 21.7846 21.4122 22.0588C21.4986 22.3352 21.6365 22.5788 21.8232 22.7804C22.0092 22.9835 22.2488 23.1426 22.5358 23.2535C22.8207 23.3638 23.1669 23.421 23.5647 23.4203C24.3831 23.4175 24.8143 23.2347 24.992 23.1363C25.0234 23.1189 25.0533 23.0882 25.0157 23.0002L24.8311 22.4803C24.8025 22.4029 24.7238 22.4314 24.7238 22.4314C24.5211 22.5068 24.2334 22.6422 23.5598 22.6408C23.121 22.6402 22.795 22.5103 22.5908 22.3072C22.3811 22.0993 22.2788 21.7936 22.2606 21.3624L25.0951 21.3651C25.0951 21.3651 25.1696 21.3638 25.1773 21.2911C25.1799 21.2605 25.2747 20.7078 25.0922 20.0679ZM16.1472 22.5211C16.0364 22.4324 16.0211 22.4101 15.9835 22.3529C15.9278 22.2656 15.8992 22.1414 15.8992 21.9837C15.8992 21.7339 15.9814 21.5545 16.1521 21.4338C16.15 21.4345 16.3959 21.221 16.9741 21.2286C17.3801 21.2342 17.7431 21.2942 17.7431 21.2942V22.5853H17.7437C17.7437 22.5853 17.3836 22.6627 16.9782 22.6871C16.4014 22.722 16.1451 22.5204 16.1472 22.5211ZM17.2749 20.5259C17.16 20.5175 17.0109 20.5126 16.8326 20.5126C16.5895 20.5126 16.3547 20.5433 16.1346 20.6026C15.9131 20.6619 15.7139 20.7548 15.5425 20.8776C15.3714 20.9999 15.2308 21.1602 15.1315 21.3458C15.0312 21.5329 14.9804 21.7534 14.9804 22.0004C14.9804 22.2517 15.0235 22.4701 15.1099 22.6488C15.1963 22.8281 15.321 22.9774 15.4798 23.0926C15.6372 23.2078 15.8316 23.2922 16.0573 23.3431C16.2795 23.3941 16.5316 23.4199 16.8075 23.4199C17.098 23.4199 17.3878 23.3962 17.6685 23.348C17.9464 23.3005 18.2878 23.2314 18.3825 23.2098C18.4489 23.1938 18.5151 23.1768 18.581 23.1589C18.6514 23.1415 18.6458 23.0661 18.6458 23.0661L18.6444 20.4694C18.6444 19.8999 18.4926 19.4777 18.1937 19.216C17.8963 18.955 17.4581 18.823 16.8918 18.823C16.6793 18.823 16.3373 18.8524 16.1325 18.8936C16.1325 18.8936 15.5132 19.0136 15.2583 19.2132C15.2583 19.2132 15.2026 19.2481 15.2332 19.3263L15.4338 19.8664C15.4589 19.9362 15.5265 19.9125 15.5265 19.9125C15.5265 19.9125 15.5481 19.9041 15.5732 19.8894C16.1187 19.5922 16.8083 19.6012 16.8083 19.6012C17.1148 19.6012 17.3502 19.6626 17.509 19.7847C17.6637 19.9034 17.7424 20.0827 17.7424 20.4609V20.581C17.4985 20.5461 17.2749 20.5259 17.2749 20.5259ZM40.1359 19.0628C40.1575 18.9985 40.1122 18.9678 40.0934 18.9609C40.0454 18.9421 39.8043 18.8911 39.6183 18.8792C39.2624 18.8576 39.0646 18.9176 38.8876 18.9972C38.7121 19.0767 38.517 19.2051 38.4083 19.351V19.0056C38.4083 18.9574 38.3742 18.919 38.3268 18.919H37.6003C37.5529 18.919 37.5188 18.9574 37.5188 19.0056V23.2408C37.5188 23.2883 37.5578 23.3274 37.6052 23.3274H38.3498C38.3726 23.3272 38.3945 23.3181 38.4105 23.3018C38.4266 23.2856 38.4356 23.2637 38.4355 23.2408V21.125C38.4355 20.8409 38.4669 20.5576 38.5296 20.3797C38.5909 20.2038 38.6745 20.0628 38.7776 19.9616C38.8813 19.8611 38.9991 19.7907 39.1279 19.7509C39.2596 19.7104 39.4051 19.6971 39.5083 19.6971C39.6567 19.6971 39.8197 19.7355 39.8197 19.7355C39.8739 19.7418 39.9046 19.7083 39.9227 19.6588C39.9715 19.5289 40.1094 19.1402 40.1359 19.0628Z" fill="white"/>
<path d="M33.143 17.091C33.0528 17.0629 32.9709 17.0439 32.864 17.0236C32.7557 17.004 32.6267 16.9941 32.4803 16.9941C31.9694 16.9941 31.5668 17.14 31.2844 17.4276C31.0033 17.7139 30.8124 18.1495 30.7166 18.7226L30.6819 18.9155H30.0407C30.0407 18.9155 29.963 18.9127 29.9463 18.9983L29.8415 19.5924C29.8339 19.6486 29.8582 19.6843 29.9331 19.6843H30.5571L29.9241 23.2562C29.8748 23.5438 29.8179 23.7802 29.7547 23.9597C29.6929 24.1366 29.6326 24.2691 29.5576 24.3659C29.4855 24.4585 29.4174 24.5272 29.2994 24.5672C29.2023 24.6002 29.0898 24.6156 28.967 24.6156C28.899 24.6156 28.8081 24.6043 28.7407 24.5903C28.6741 24.577 28.6387 24.5623 28.588 24.5405C28.588 24.5405 28.5152 24.5125 28.486 24.5862C28.4631 24.6472 28.2965 25.1094 28.2764 25.1663C28.257 25.2231 28.2847 25.2673 28.3201 25.2806C28.4034 25.3101 28.4651 25.3297 28.5783 25.357C28.7352 25.3943 28.8677 25.3963 28.9919 25.3963C29.2515 25.3963 29.4888 25.3592 29.6853 25.2876C29.8824 25.2154 30.0545 25.0898 30.2071 24.9201C30.3716 24.7363 30.475 24.5441 30.5737 24.281C30.6715 24.0215 30.7555 23.6988 30.8221 23.3228L31.4585 19.6843H32.3885C32.3885 19.6843 32.4669 19.6871 32.4829 19.6008L32.5884 19.0074C32.5953 18.9506 32.5717 18.9155 32.4961 18.9155H31.5931C31.598 18.8952 31.6389 18.5739 31.7424 18.2716C31.7868 18.1433 31.87 18.0387 31.9402 17.9671C32.0096 17.897 32.0894 17.8472 32.1769 17.8184C32.2664 17.7889 32.3685 17.7749 32.4802 17.7749C32.5649 17.7749 32.6488 17.7847 32.712 17.7981C32.7994 17.817 32.8334 17.8268 32.8564 17.8339C32.9487 17.8619 32.9611 17.8346 32.9792 17.7897L33.1951 17.1907C33.2173 17.126 33.1624 17.0986 33.143 17.091ZM20.5273 23.2639C20.5273 23.3116 20.4933 23.3502 20.4461 23.3502H19.6972C19.65 23.3502 19.6167 23.3116 19.6167 23.2639V17.1723C19.6167 17.1247 19.65 17.0861 19.6972 17.0861H20.4461C20.4933 17.0861 20.5273 17.1247 20.5273 17.1723V23.2639Z" fill="white"/>
</svg>
