<svg xmlns="http://www.w3.org/2000/svg" xmlns:xlink="http://www.w3.org/1999/xlink" viewBox="0 0 97.122 49.122" fill="#fff" fill-rule="evenodd" stroke="#000" stroke-linecap="round" stroke-linejoin="round"><use xlink:href="#B" x=".561" y=".561"/><defs><linearGradient id="A" x1="49.50%" y1="0.32%" x2="49.50%" y2="101.24%"><stop offset="0%" stop-color="#00b8f1"/><stop offset="22%" stop-color="#06a5e5"/><stop offset="79%" stop-color="#1870c5"/><stop offset="100%" stop-color="#1d61bc"/></linearGradient></defs><symbol id="B" overflow="visible"><g stroke="none" fill-rule="nonzero"><path d="M0 0v47.136h48.149L95.276.006H0z" fill="url(#A)"/><path d="M58.118 21.936H56.11v-7.342h2c2.683 0 4.818.883 4.818 3.626 0 2.833-2.136 3.72-4.818 3.72m-21.63 5.255c-.997.004-1.987-.17-2.923-.515l2.894-9.127h.06l2.836 9.153a8.52 8.52 0 0 1-2.865.492M57.588 8.624h-9.13v21.704L40.485 8.624h-7.9l-6.8 18.142c-.72-4.567-5.455-6.152-9.18-7.336-2.454-.8-5.067-1.95-5.044-3.235.02-1.05 1.404-2.026 4.13-1.88 1.838.093 3.473.24 6.676 1.797l3.183-5.522c-2.937-1.5-7.006-2.442-10.337-2.448h-.032c-3.884 0-7.12 1.265-9.127 3.34a7.72 7.72 0 0 0-2.185 5.325c-.052 2.796.978 4.78 3.134 6.367 1.823 1.337 4.15 2.196 6.205 2.842 2.535.778 4.604 1.464 4.58 2.923a2.11 2.11 0 0 1-.602 1.418c-.63.65-1.6.9-2.943.932-2.587.052-4.503-.35-7.56-2.156l-2.82 5.594c3.148 1.788 6.703 2.733 10.323 2.746h.477c3.2-.06 5.788-.975 7.854-2.636l.336-.3-.903 2.44h8.285l1.392-4.234a15.84 15.84 0 0 0 9.628.04l1.34 4.196h13.513v-8.75h2.952c7.125 0 11.344-3.626 11.344-9.712 0-6.775-4.1-9.883-12.82-9.883"/></g></symbol></svg>