<svg xmlns="http://www.w3.org/2000/svg" width="26" height="26" viewBox="0 0 26 26">
    <g fill="none" fill-rule="evenodd">
        <path fill="#F9E27D" stroke="#979797" stroke-width="2" d="M6.385 25c-1.54 0-3.308-.213-5.385-.648V1h24v17.804a29.397 29.397 0 0 0-.352-.002c-5.937 0-8.551 1.879-10.858 3.536C11.802 23.767 10.086 25 6.386 25h-.001"/>
        <path stroke="#9B9B9B" stroke-width="1.5" d="M6.385 25c-1.54 0-3.308-.213-5.385-.648V1h24v17.804a29.397 29.397 0 0 0-.352-.002c-5.937 0-8.551 1.879-10.858 3.536C11.802 23.767 10.086 25 6.386 25h-.001z"/>
    </g>
</svg>
