<svg width="32" height="34" viewBox="0 0 32 34" fill="none" xmlns="http://www.w3.org/2000/svg">
<rect width="32" height="33.6756" fill="#E6ECF8"/>
<path fill-rule="evenodd" clip-rule="evenodd" d="M12.25 9.33789C12.25 8.92368 12.5858 8.58789 13 8.58789C13.4142 8.58789 13.75 8.92368 13.75 9.33789C13.75 9.7521 13.4142 10.0879 13 10.0879C12.5858 10.0879 12.25 9.7521 12.25 9.33789ZM13 7.08789C12.0203 7.08789 11.1869 7.71399 10.878 8.58788L7.00002 8.58778C6.58581 8.58777 6.25001 8.92355 6.25 9.33776C6.24999 9.75197 6.58577 10.0878 6.99998 10.0878L10.878 10.0879C11.1869 10.9618 12.0203 11.5879 13 11.5879C13.9797 11.5879 14.8131 10.9618 15.122 10.0879L25 10.0878C25.4142 10.0878 25.75 9.75198 25.75 9.33777C25.75 8.92356 25.4142 8.58777 25 8.58778L15.122 8.58788C14.8131 7.71399 13.9797 7.08789 13 7.08789ZM19.5 18.0879C19.9142 18.0879 20.25 17.7521 20.25 17.3379C20.25 16.9237 19.9142 16.5879 19.5 16.5879C19.0858 16.5879 18.75 16.9237 18.75 17.3379C18.75 17.7521 19.0858 18.0879 19.5 18.0879ZM21.622 18.0879C21.3131 18.9618 20.4797 19.5879 19.5 19.5879C18.5203 19.5879 17.6869 18.9618 17.378 18.0879L6.99999 18.0878C6.58578 18.0878 6.25 17.752 6.25 17.3378C6.25 16.9236 6.58579 16.5878 7.00001 16.5878L17.378 16.5879C17.6869 15.714 18.5203 15.0879 19.5 15.0879C20.4797 15.0879 21.3131 15.714 21.622 16.5879L25 16.5878C25.4142 16.5878 25.75 16.9236 25.75 17.3378C25.75 17.752 25.4142 18.0878 25 18.0878L21.622 18.0879ZM11 23.5879C10.5858 23.5879 10.25 23.9237 10.25 24.3379C10.25 24.7521 10.5858 25.0879 11 25.0879C11.4142 25.0879 11.75 24.7521 11.75 24.3379C11.75 23.9237 11.4142 23.5879 11 23.5879ZM8.87803 23.5879C9.18691 22.714 10.0203 22.0879 11 22.0879C11.9797 22.0879 12.8131 22.714 13.122 23.5879L25 23.5879C25.4142 23.5879 25.75 23.9237 25.75 24.3379C25.75 24.7521 25.4142 25.0879 25 25.0879L13.122 25.0879C12.8131 25.9618 11.9797 26.5879 11 26.5879C10.0203 26.5879 9.18691 25.9618 8.87803 25.0879H7C6.58579 25.0879 6.25 24.7521 6.25 24.3379C6.25 23.9237 6.58579 23.5879 7 23.5879L8.87803 23.5879Z" fill="#0841B4"/>
<circle cx="25" cy="7" r="7" fill="#815E9D"/>
</svg>
