<?xml version="1.0" encoding="UTF-8" standalone="no"?><!DOCTYPE svg PUBLIC "-//W3C//DTD SVG 1.1//EN" "http://www.w3.org/Graphics/SVG/1.1/DTD/svg11.dtd"><svg width="100%" height="100%" viewBox="0 0 24 24" version="1.1" xmlns="http://www.w3.org/2000/svg" xmlns:xlink="http://www.w3.org/1999/xlink" xml:space="preserve" xmlns:serif="http://www.serif.com/" style="fill-rule:evenodd;clip-rule:evenodd;stroke-linejoin:round;stroke-miterlimit:2;"><g><path d="M6,1.5c0,-0.828 -0.672,-1.5 -1.5,-1.5l-3,0c-0.828,0 -1.5,0.672 -1.5,1.5l0,3c0,0.828 0.672,1.5 1.5,1.5l3,0c0.828,0 1.5,-0.672 1.5,-1.5l0,-3Z" style="fill:#1b4e8d;"/><path d="M6,10.5c0,-0.828 -0.672,-1.5 -1.5,-1.5l-3,0c-0.828,0 -1.5,0.672 -1.5,1.5l0,3c0,0.828 0.672,1.5 1.5,1.5l3,0c0.828,0 1.5,-0.672 1.5,-1.5l0,-3Z" style="fill:#1b4e8d;"/><path d="M6,19.5c0,-0.828 -0.672,-1.5 -1.5,-1.5l-3,0c-0.828,0 -1.5,0.672 -1.5,1.5l0,3c0,0.828 0.672,1.5 1.5,1.5l3,0c0.828,0 1.5,-0.672 1.5,-1.5l0,-3Z" style="fill:#1b4e8d;"/><path d="M15,1.5c0,-0.828 -0.672,-1.5 -1.5,-1.5l-3,0c-0.828,0 -1.5,0.672 -1.5,1.5l0,3c0,0.828 0.672,1.5 1.5,1.5l3,0c0.828,0 1.5,-0.672 1.5,-1.5l0,-3Z" style="fill:#1b4e8d;"/><path d="M15,10.5c0,-0.828 -0.672,-1.5 -1.5,-1.5l-3,0c-0.828,0 -1.5,0.672 -1.5,1.5l0,3c0,0.828 0.672,1.5 1.5,1.5l3,0c0.828,0 1.5,-0.672 1.5,-1.5l0,-3Z" style="fill:#1b4e8d;"/><path d="M15,19.5c0,-0.828 -0.672,-1.5 -1.5,-1.5l-3,0c-0.828,0 -1.5,0.672 -1.5,1.5l0,3c0,0.828 0.672,1.5 1.5,1.5l3,0c0.828,0 1.5,-0.672 1.5,-1.5l0,-3Z" style="fill:#1b4e8d;"/><path d="M24,1.5c0,-0.828 -0.672,-1.5 -1.5,-1.5l-3,0c-0.828,0 -1.5,0.672 -1.5,1.5l0,3c0,0.828 0.672,1.5 1.5,1.5l3,0c0.828,0 1.5,-0.672 1.5,-1.5l0,-3Z" style="fill:#1b4e8d;"/><path d="M24,10.5c0,-0.828 -0.672,-1.5 -1.5,-1.5l-3,0c-0.828,0 -1.5,0.672 -1.5,1.5l0,3c0,0.828 0.672,1.5 1.5,1.5l3,0c0.828,0 1.5,-0.672 1.5,-1.5l0,-3Z" style="fill:#1b4e8d;"/><path d="M24,19.5c0,-0.828 -0.672,-1.5 -1.5,-1.5l-3,0c-0.828,0 -1.5,0.672 -1.5,1.5l0,3c0,0.828 0.672,1.5 1.5,1.5l3,0c0.828,0 1.5,-0.672 1.5,-1.5l0,-3Z" style="fill:#1b4e8d;"/></g></svg>