<svg xmlns="http://www.w3.org/2000/svg" viewBox="0 0 24 24">
  <defs>
    <style>
      .cls-1 {
        fill: #7f7f7f;
      }

      .cls-2 {
        fill: none;
      }
    </style>
  </defs>
  <title>help_2-Active</title>
  <g id="Layer_2" data-name="Layer 2">
    <g id="Meat">
      <g>
        <g>
          <path class="cls-1" d="M11.48,24a2.7,2.7,0,0,1-1.94-.65,2.44,2.44,0,0,1-.67-1.86,2.5,2.5,0,0,1,.65-1.88,2.75,2.75,0,0,1,2-.62,2.62,2.62,0,0,1,1.91.64,2.92,2.92,0,0,1,0,3.7A2.57,2.57,0,0,1,11.48,24Z"/>
          <path class="cls-1" d="M9.43,16.08v-.89a5.18,5.18,0,0,1,.64-2.63,8.72,8.72,0,0,1,2.42-2.43A10.78,10.78,0,0,0,14.89,8a3.33,3.33,0,0,0,.63-2,2.26,2.26,0,0,0-1-2,4.21,4.21,0,0,0-2.46-.64A13,13,0,0,0,6.48,4.9L5,1.9A15.71,15.71,0,0,1,12.48,0,8.15,8.15,0,0,1,17.76,1.6a5.06,5.06,0,0,1,1.91,4.16,5.58,5.58,0,0,1-.79,3,11.69,11.69,0,0,1-3.1,2.93,10.07,10.07,0,0,0-2.13,1.91,3.18,3.18,0,0,0-.49,1.83v.65H9.43Z"/>
        </g>
        <rect class="cls-2" width="24" height="24"/>
      </g>
    </g>
  </g>
</svg>
