<svg width="32" height="32" viewBox="0 0 32 32" fill="none" xmlns="http://www.w3.org/2000/svg">
<path fill-rule="evenodd" clip-rule="evenodd" d="M12.25 8.5C12.25 8.08579 12.5858 7.75 13 7.75C13.4142 7.75 13.75 8.08579 13.75 8.5C13.75 8.91421 13.4142 9.25 13 9.25C12.5858 9.25 12.25 8.91421 12.25 8.5ZM13 6.25C12.0203 6.25 11.1869 6.8761 10.878 7.74998L7.00002 7.74989C6.58581 7.74988 6.25001 8.08566 6.25 8.49987C6.24999 8.91408 6.58577 9.24988 6.99998 9.24989L10.878 9.24998C11.1869 10.1239 12.0203 10.75 13 10.75C13.9797 10.75 14.8131 10.1239 15.122 9.24999L25 9.24989C25.4142 9.24988 25.75 8.91409 25.75 8.49988C25.75 8.08567 25.4142 7.74988 25 7.74989L15.122 7.74999C14.8131 6.8761 13.9797 6.25 13 6.25ZM19.5 17.25C19.9142 17.25 20.25 16.9142 20.25 16.5C20.25 16.0858 19.9142 15.75 19.5 15.75C19.0858 15.75 18.75 16.0858 18.75 16.5C18.75 16.9142 19.0858 17.25 19.5 17.25ZM21.622 17.25C21.3131 18.1239 20.4797 18.75 19.5 18.75C18.5203 18.75 17.6869 18.1239 17.378 17.25L6.99999 17.2499C6.58578 17.2499 6.25 16.9141 6.25 16.4999C6.25 16.0857 6.58579 15.7499 7.00001 15.7499L17.378 15.75C17.6869 14.8761 18.5203 14.25 19.5 14.25C20.4797 14.25 21.3131 14.8761 21.622 15.75L25 15.7499C25.4142 15.7499 25.75 16.0857 25.75 16.4999C25.75 16.9141 25.4142 17.2499 25 17.2499L21.622 17.25ZM11 22.75C10.5858 22.75 10.25 23.0858 10.25 23.5C10.25 23.9142 10.5858 24.25 11 24.25C11.4142 24.25 11.75 23.9142 11.75 23.5C11.75 23.0858 11.4142 22.75 11 22.75ZM8.87803 22.75C9.18691 21.8761 10.0203 21.25 11 21.25C11.9797 21.25 12.8131 21.8761 13.122 22.75L25 22.75C25.4142 22.75 25.75 23.0858 25.75 23.5C25.75 23.9142 25.4142 24.25 25 24.25L13.122 24.25C12.8131 25.1239 11.9797 25.75 11 25.75C10.0203 25.75 9.18691 25.1239 8.87803 24.25H7C6.58579 24.25 6.25 23.9142 6.25 23.5C6.25 23.0858 6.58579 22.75 7 22.75L8.87803 22.75Z" fill="#031A48"/>
</svg>