<svg width="55" height="49" viewBox="0 0 55 49" fill="none" xmlns="http://www.w3.org/2000/svg">
<path d="M43 15.0515V44.1655C43 45.7312 41.7247 47 40.1537 47H13.8463C12.2741 47 11 45.7312 11 44.1655V5.83448C10.9999 4.26878 12.274 3 13.8463 3H30.8985L43 15.0515Z" fill="#28B446"/>
<path d="M32 14.5399L43 19V14.8123L36.7633 13L32 14.5399Z" fill="#219B38"/>
<path d="M43 15H33.8224C32.2633 15 31 13.7366 31 12.1776V3L43 15Z" fill="#6ACE7C"/>
<path d="M34.0804 25H19.9196C19.4116 25 19 25.407 19 25.9092V38.0908C19 38.5929 19.4116 39 19.9196 39H34.0804C34.5884 39 35 38.593 35 38.0908V25.9092C35 25.4071 34.5884 25 34.0804 25ZM20.8392 30.845H26.0804V33.1553H20.8392V30.845ZM27.9196 30.845H33.1608V33.1553H27.9196V30.845ZM33.1609 29.0268H27.9197V26.8183H33.1609V29.0268ZM26.0804 26.8183V29.0267H20.8392V26.8183H26.0804ZM20.8392 34.9736H26.0804V37.1819H20.8392V34.9736ZM27.9196 37.1818V34.9735H33.1608V37.1818H27.9196Z" fill="white"/>
</svg>
