<svg width="32" height="32" viewBox="0 0 32 32" fill="none" xmlns="http://www.w3.org/2000/svg">
<path d="M7.38589 11.6669C6.62955 10.8215 6.25138 10.3989 6.23712 10.0397C6.22473 9.72764 6.35882 9.42772 6.59963 9.22889C6.87684 9 7.44399 9 8.57828 9H23.4212C24.5555 9 25.1227 9 25.3999 9.22889C25.6407 9.42772 25.7748 9.72764 25.7624 10.0397C25.7481 10.3989 25.3699 10.8215 24.6136 11.6669L18.9074 18.0444C18.7566 18.2129 18.6812 18.2972 18.6275 18.3931C18.5798 18.4781 18.5448 18.5697 18.5236 18.6648C18.4997 18.7721 18.4997 18.8852 18.4997 19.1113V24.4584C18.4997 24.6539 18.4997 24.7517 18.4682 24.8363C18.4403 24.911 18.395 24.9779 18.336 25.0315C18.2692 25.0922 18.1784 25.1285 17.9969 25.2012L14.5969 26.5612C14.2293 26.7082 14.0455 26.7817 13.898 26.751C13.769 26.7242 13.6558 26.6476 13.583 26.5377C13.4997 26.4122 13.4997 26.2142 13.4997 25.8184V19.1113C13.4997 18.8852 13.4997 18.7721 13.4759 18.6648C13.4547 18.5697 13.4197 18.4781 13.372 18.3931C13.3183 18.2972 13.2429 18.2129 13.0921 18.0444L7.38589 11.6669Z" stroke="#031A48" stroke-width="1.5" stroke-linecap="round" stroke-linejoin="round"/>
</svg>
