<?xml version="1.0" encoding="UTF-8" standalone="no"?>
<!DOCTYPE svg PUBLIC "-//W3C//DTD SVG 1.1//EN" "http://www.w3.org/Graphics/SVG/1.1/DTD/svg11.dtd">
<svg width="100%" height="100%" viewBox="0 0 70 70" version="1.1" xmlns="http://www.w3.org/2000/svg" xmlns:xlink="http://www.w3.org/1999/xlink" xml:space="preserve" xmlns:serif="http://www.serif.com/" style="fill-rule:evenodd;clip-rule:evenodd;stroke-linejoin:round;stroke-miterlimit:2;">
    <g transform="matrix(1,0,0,1,-15.3,-32.5)">
        <circle cx="49.9" cy="67.1" r="34.6" style="fill:rgb(0,51,153);"/>
        <g>
            <g>
                <path d="M63,80.7C62,81.7 60.9,82.2 59.5,82.2C58.1,82.2 56.9,81.6 55.8,80.5C54.8,79.5 54.3,78.3 54.3,76.8C54.3,75.3 54.8,74 55.8,73.1L55.9,73C56.9,72 58.1,71.5 59.5,71.5C60.9,71.5 62.1,72 63.2,73.1C64.2,74.1 64.6,75.3 64.6,76.8C64.6,78.4 64,79.6 63,80.7M54.4,57.5C54.4,56 54.9,54.7 55.9,53.8L56,53.7C57,52.7 58.2,52.2 59.6,52.2C61,52.2 62.2,52.7 63.3,53.8C64.3,54.8 64.7,56 64.7,57.5C64.7,59 64.2,60.3 63.1,61.4C62.1,62.4 61,62.9 59.6,62.9C58.2,62.9 57,62.3 55.9,61.2C54.8,60.2 54.4,59 54.4,57.5M43.7,61.4C42.7,62.4 41.6,62.9 40.2,62.9C38.9,62.9 37.6,62.3 36.5,61.2C35.5,60.2 35,59 35,57.5C35,56 35.5,54.8 36.5,53.8L36.6,53.7C37.6,52.7 38.8,52.2 40.2,52.2C41.6,52.2 42.8,52.7 43.9,53.8C44.9,54.8 45.3,56 45.3,57.5C45.3,59 44.7,60.3 43.7,61.4M61.1,68.6L61.1,65.7C62.7,65.4 64.2,64.7 65.4,63.4C67,61.9 67.8,59.9 67.8,57.5C67.8,55.1 67,53.1 65.4,51.5C63.8,49.9 61.8,49.1 59.5,49.1C57.2,49.1 55.2,49.9 53.6,51.5C52.4,52.7 51.6,54.2 51.3,55.8L48.4,55.8C48.1,54.1 47.4,52.7 46.1,51.5C44.5,49.9 42.5,49.1 40.2,49.1C37.9,49.1 35.9,49.9 34.3,51.5C32.7,53.1 31.9,55.1 31.9,57.4C31.9,58.5 32.1,59.5 32.5,60.6C32.9,61.7 33.5,62.6 34.3,63.3C36,64.9 38,65.7 40.3,65.7C42.6,65.7 44.6,64.9 46.2,63.3C47.4,62.1 48.2,60.7 48.5,59L51.4,59C51.5,59.6 51.7,60.1 51.9,60.6C52.3,61.7 52.9,62.6 53.7,63.3C54.9,64.5 56.4,65.2 58,65.5L58,68.5C56.4,68.8 55,69.6 53.7,70.8C52.1,72.4 51.3,74.4 51.3,76.7C51.3,77.8 51.5,78.8 51.9,79.9C52.3,81 52.9,81.9 53.7,82.6C55.4,84.2 57.4,85 59.7,85C62,85 64,84.2 65.6,82.6C67.2,81.1 68,79.1 68,76.7C68,74.3 67.2,72.3 65.6,70.7C64.2,69.6 62.7,68.9 61.1,68.6" style="fill:white;fill-rule:nonzero;"/>
            </g>
        </g>
    </g>
</svg>
