<?xml version="1.0" encoding="UTF-8"?><svg id="art" xmlns="http://www.w3.org/2000/svg" viewBox="0 0 1508 581"><defs><style>.cls-1{fill:#fff;}</style></defs><g><path class="cls-1" d="M254.54968,237.87842c2.95703-2.95728,4.39551-6.39404,4.39551-10.62988,0-4.31592-1.27881-7.67261-3.91602-10.31006-2.95703-2.95728-6.23438-4.39575-10.07031-4.39575-3.83643,0-7.11328,1.35864-9.83057,4.07593l-.31982,.31982c-2.71729,2.71729-4.07617,6.15405-4.07617,10.31006,0,3.99609,1.27881,7.27295,4.15625,10.07031,3.03711,3.11719,6.31396,4.63574,10.07031,4.63574s6.87305-1.35889,9.59082-4.07617Z"/><path class="cls-1" d="M191.72986,212.46265c-3.83643,0-7.11328,1.35864-9.83057,4.07617l-.31982,.31958c-2.71729,2.79736-4.07617,6.1543-4.07617,10.3103,0,4.07593,1.35889,7.35278,4.07617,10.07031,3.03711,3.11694,6.39404,4.6355,10.07031,4.6355,3.75635,0,6.87354-1.35864,9.59082-4.07617,2.95703-2.95703,4.396-6.3938,4.47559-10.62964,0-4.31592-1.27881-7.67261-3.91602-10.3103-2.95752-2.95703-6.23389-4.39575-10.07031-4.39575Z"/><path class="cls-1" d="M218.34412,158.00684c-52.74121,0-95.49658,42.75537-95.49658,95.49658s42.75537,95.49658,95.49658,95.49658,95.49658-42.75537,95.49658-95.49658-42.75488-95.49658-95.49658-95.49658Zm42.99902,138.37549c-4.47559,4.39575-9.99072,6.63379-16.22461,6.63379-6.31396,0-11.82861-2.23804-16.46436-6.63379-2.07764-1.91821-3.75635-4.47559-4.95508-7.5127-1.11865-2.79736-1.67822-5.75464-1.67822-8.71167,0-6.31396,2.23779-11.82886,6.71338-16.30444,3.35693-3.35693,7.27295-5.43481,11.74902-6.31396v-8.15234c-4.47607-.79907-8.47217-2.87695-11.90869-6.15381-2.07812-1.91846-3.75635-4.47583-4.95557-7.51294-.55908-1.43872-.95898-2.8772-1.27832-4.39575h-8.07227c-.79932,4.6355-2.87744,8.63159-6.23438,11.90869-4.47559,4.39551-9.91016,6.63354-16.22461,6.63354-6.31348,0-11.82861-2.23804-16.46387-6.63354-2.07812-1.91846-3.75635-4.47583-4.95557-7.51294-1.11865-2.79736-1.67822-5.75464-1.67822-8.71167,0-6.31396,2.23779-11.82861,6.71338-16.30444,4.47607-4.47559,9.91064-6.71362,16.30469-6.71362,6.39355,0,11.82861,2.23804,16.22412,6.63379,3.35693,3.35669,5.43506,7.35303,6.23438,11.98853h8.07227c.79932-4.47583,2.95703-8.47192,6.31396-11.82886,4.47559-4.47559,9.91016-6.71338,16.3042-6.71338s11.82861,2.23779,16.22461,6.63354c4.47559,4.39575,6.63379,9.91064,6.63379,16.46436s-2.23828,12.06836-6.63379,16.30444c-3.43701,3.35669-7.43311,5.43457-11.90869,6.23389v8.07227c4.55566,.79932,8.55176,2.8772,12.14844,5.83447,4.47559,4.39575,6.63379,9.9104,6.63379,16.46411s-2.23779,12.0686-6.63379,16.30444Z"/><path class="cls-1" d="M244.95886,265.77173c-3.83643,0-7.11328,1.35864-9.83057,4.07593l-.31982,.31982c-2.71729,2.71729-4.07617,6.15405-4.07617,10.31006,0,4.07617,1.35889,7.35303,4.07617,10.07031,3.03711,3.11719,6.31396,4.63574,10.07031,4.63574s6.87354-1.35889,9.59082-4.07617c2.95703-2.95728,4.396-6.39404,4.47559-10.62988,0-4.31592-1.27881-7.67261-3.91602-10.31006-2.95703-2.95728-6.23438-4.39575-10.07031-4.39575Z"/></g><g><g><path class="cls-1" d="M564.64323,220.8675c-3.35524-7.81601-8.6259-14.14079-15.68345-18.7687-7.0447-4.61504-15.18208-6.96756-24.2065-6.96756-8.75444,0-16.96897,2.05684-24.39932,6.11911-3.93371,2.13398-7.71316,4.87215-11.28694,8.1888v-11.51833h-23.69227v117.96005h23.69227v-44.56925c0-17.17466,1.00271-24.8364,1.83831-28.20448,1.8383-7.17325,5.73346-13.27952,11.56975-18.16451,5.73346-4.78216,12.28965-7.21182,19.50146-7.21182,6.19625,0,11.2098,1.46551,14.87355,4.3708,3.6509,2.87959,6.19625,7.40464,7.57177,13.48519,.64275,2.60964,1.40122,8.84443,1.40122,23.80798v56.48609h23.69229v-60.57408c0-15.31063-1.64548-26.90609-4.87215-34.43929"/><path class="cls-1" d="M766.04948,231.86263c.68132-.62991,1.19555-1.09269,1.49123-1.40122,7.13466-7.13468,15.96622-10.61846,27.02177-10.66988h.19282c9.92427,0,18.55018,3.79231,26.36621,11.62116l.3342,.29568c.23142,.17997,.61706,.56564,1.15698,1.10556,6.53047,6.42764,9.70575,14.64216,9.70575,25.13206,0,10.39992-3.61231,19.06438-11.0684,26.50758-7.45604,7.44321-16.19763,11.09411-26.98322,11.14554-11.23552,0-19.97709-3.18811-26.76468-9.75716-3.49665-3.39381-6.37622-7.82887-8.56162-13.17667-2.05684-5.09069-3.08526-10.01425-3.03385-14.69358,.05142-10.81129,3.40664-19.37291,10.14281-26.10908m71.21827-16.68616c-11.85258-11.83971-26.26338-17.84311-42.80811-17.84311-13.93512,0-26.58471,4.5122-37.67882,13.40805v-12.45676h-22.80525v206.32724h22.80525v-99.43559c10.59277,8.54876,23.24235,12.88099,37.67882,12.88099,8.11169,0,15.92767-1.51692,23.25518-4.49935,11.19698-4.52505,20.32421-11.96826,27.1375-22.11107,6.81333-10.11711,10.27142-21.40404,10.27142-33.50086,0-16.54474-6.00345-30.92979-17.85598-42.76953"/><path class="cls-1" d="M415.70323,245.10228c-9.79572-5.03925-13.66516-8.33021-15.23351-10.24565-1.94115-2.31395-2.84102-4.49935-2.84102-6.89042,0-2.62248,1.02842-4.80788,3.26524-6.86472,2.33966-2.17255,4.97499-3.17525,8.29165-3.17525,5.77202,0,11.96826,3.1881,18.44733,9.46149l3.49664,3.40664,15.74772-16.28764-3.50949-3.39379c-10.99126-10.60562-22.25249-15.97911-33.47515-15.97911-9.84715,0-18.1388,3.20097-24.65642,9.52575-6.5819,6.37622-9.91142,14.43649-9.91142,24.00082,0,7.31466,2.09541,13.92227,6.2091,19.64287,3.93372,5.51491,11.23551,11.02983,21.674,16.42905,10.56704,5.38636,14.55218,8.58733,15.99197,10.29707,1.88973,2.27539,2.76388,4.66647,2.76388,7.52034,0,3.48378-1.36266,6.35051-4.28081,9.03726-2.98242,2.71247-6.67189,4.08798-10.96555,4.08798-6.47906,0-12.86813-3.49663-18.98725-10.39992l-3.66375-4.11369-15.06639,17.11038,2.48107,3.1881c4.17797,5.36066,9.50005,9.61575,15.83771,12.6496,6.33765,3.021,13.06096,4.55077,19.98996,4.55077,10.65703,0,19.68144-3.58663,26.82897-10.65702,7.1861-7.08327,10.81129-15.85056,10.81129-26.0448,0-7.31466-2.15968-13.9994-6.44049-19.92569-4.15225-5.55348-11.82686-11.24836-22.80527-16.93041"/><path class="cls-1" d="M688.06675,257.88429c0,7.31466-1.63261,13.96084-4.885,19.75857-3.20097,5.7206-7.8803,10.33564-13.87085,13.71658-11.86543,6.67189-26.62327,6.6976-37.98735,0-5.81058-3.4195-10.51561-8.26594-13.97369-14.42362-3.47093-6.17054-5.23209-12.72672-5.23209-19.46289,0-6.78759,1.74831-13.34378,5.18068-19.45005,3.43236-6.09339,8.08597-10.87555,13.84513-14.21793,5.78489-3.35522,12.17396-5.05212,19.00011-5.05212,10.63131,0,19.70713,3.75374,26.95752,11.14551,7.27609,7.43037,10.96554,16.84043,10.96554,27.98595m-.88699-59.54566v11.83973c-3.66378-3.38095-7.59749-6.1834-11.78831-8.3945-7.88027-4.12656-16.75042-6.22197-26.39188-6.22197-16.64759,0-31.10978,6.08057-42.94949,18.06168-11.82686,11.96826-17.81741,26.57186-17.81741,43.41227,0,17.13609,5.93914,31.91966,17.65029,43.92649,11.73687,12.01969,26.10908,18.12594,42.7181,18.12594,9.33293,0,18.07453-1.96686,25.98052-5.862,4.42221-2.1854,8.63876-5.0007,12.59819-8.40736v11.47976h23.48659v-117.96005h-23.48659Z"/></g><polygon class="cls-1" points="898.32645 291.34657 898.32645 121.03983 874.38988 121.03983 874.38988 314.31897 951.14876 314.31897 951.14876 291.34657 898.32645 291.34657"/><path class="cls-1" d="M1371.24261,282.96365l-2.48108,2.48108c-7.48178,7.46891-16.30056,11.10695-26.98332,11.10695-10.88833,0-19.52713-3.47092-26.40466-10.6056-6.92901-7.19895-10.28426-16.01768-10.28426-26.99609,0-11.11981,3.13673-19.93852,9.32006-26.21191,.68135-.53992,1.16987-1.01557,1.337-1.24696,7.0061-6.94184,15.52918-10.30994,26.03186-10.30994,10.63136,0,19.30872,3.48378,26.54619,10.68275l2.53247,2.50678,15.67061-16.30049-2.54532-2.42966c-11.77544-11.22265-25.94193-16.91755-42.12676-16.91755-16.59617,0-30.94263,5.91344-42.60244,17.57318-11.65971,11.67258-17.57313,26.00622-17.57313,42.61525,0,16.77613,5.84918,31.13549,17.406,42.67953,11.54408,11.5569,25.91633,17.40605,42.69238,17.40605,16.57048,0,31.07131-5.8363,43.06527-17.34177l2.59671-2.49393-16.19758-16.19766Z"/><path class="cls-1" d="M1186.02891,426.82324c-7.18613,7.1861-15.42635,10.66988-25.15779,10.66988-9.77004,0-18.4345-3.95943-26.54619-12.13538-7.18608-7.17325-10.66986-15.812-10.66986-26.45617,0-10.99126,3.49663-19.84855,10.66986-27.06037l.78418-.78417c7.22467-7.23752,15.65776-10.75987,25.762-10.75987,10.0271,0,18.67871,3.77945,26.45615,11.54404,6.87757,6.89043,10.23282,15.74772,10.23282,27.06037,0,11.02983-3.77953,20.15708-11.53118,27.92167m-62.37384-167.79997c0-10.99125,3.49663-19.84855,10.66986-27.06035l.78418-.78418c7.22467-7.23752,15.65776-10.75987,25.762-10.75987,10.03995,0,18.69156,3.77946,26.45615,11.54405,6.87757,6.87757,10.23282,15.73485,10.23282,27.06035,0,11.02983-3.77953,20.15708-11.53118,27.92167-7.18613,7.17325-15.42635,10.66989-25.15779,10.66989-9.77004,0-18.4345-3.97228-26.54619-12.14825-7.18608-7.16039-10.66986-15.82485-10.66986-26.44331m-77.3502,27.80597c-7.18613,7.1861-15.4135,10.66988-25.15779,10.66988-9.75719,0-18.4345-3.97228-26.53329-12.13538-7.18613-7.1861-10.66991-15.83771-10.66991-26.45617,0-10.97841,3.49663-19.83569,10.66991-27.06036l.78413-.78418c7.22467-7.23752,15.64491-10.747,25.74915-10.747,10.03995,0,18.69156,3.76659,26.469,11.53118,6.87757,6.87757,10.21997,15.73488,10.21997,27.06036,0,11.02983-3.76659,20.16994-11.53118,27.92167m125.96889,52.44954v-21.1855c11.76254-2.10826,22.25248-7.57176,31.25113-16.33906,11.50543-11.2098,17.34176-25.59487,17.34176-42.7181,.06434-17.18751-5.77199-31.75253-17.35461-43.28374-11.58262-11.51833-25.90338-17.35461-42.56379-17.35461-16.7119,0-31.1612,5.96483-42.89809,17.71456-8.87013,8.8573-14.4236,19.2315-16.63472,30.96838h-21.23693c-2.09544-12.12252-7.57177-22.66387-16.3905-31.444-11.58257-11.50548-25.89053-17.35463-42.55095-17.35463-16.72475,0-31.1612,5.96486-42.91094,17.71458-11.7497,11.76257-17.7274,26.19906-17.7274,42.91092,0,7.81601,1.49118,15.54203,4.42219,22.94667,3.12383,7.95742,7.49463,14.62932,12.98381,19.80999,12.16113,11.50548,26.68756,17.34177,43.14236,17.34177,16.48044,0,30.8398-5.84915,42.66668-17.38034,8.83158-8.60018,14.28222-19.06438,16.36476-31.19977h21.22408c.74559,3.908,1.85112,7.76459,3.34235,11.54404,3.12383,7.97028,7.49463,14.64218,12.98386,19.80999,9.12724,8.63875,19.59142,14.07654,31.19974,16.24907v21.36548c-11.6983,2.21111-22.04681,7.77744-30.87839,16.59616-11.76259,11.76258-17.7274,26.21192-17.7274,42.91092,0,7.7903,1.49118,15.51632,4.42219,22.94667,3.13668,7.99599,7.50748,14.65502,12.98386,19.80999,12.17393,11.50548,26.68752,17.34177,43.14231,17.34177,16.46759,0,30.82695-5.84915,42.65378-17.36748,11.50543-11.2098,17.34176-25.58201,17.34176-42.7181,.06434-17.20036-5.77199-31.75254-17.35461-43.27086-8.85733-8.81872-19.34716-14.28222-31.23829-16.36478"/><rect class="cls-1" x="1238.96049" y="201.57428" width="24.63072" height="112.74083"/><path class="cls-1" d="M1251.21935,192.51261c4.43499,0,8.44589-1.67118,11.56967-4.80786,3.18812-3.20097,4.80788-7.07042,4.80788-11.50548,0-4.46078-1.67115-8.47163-4.79503-11.60832-3.08524-3.09814-7.18608-4.79503-11.54398-4.79503-4.34515,0-8.43314,1.70977-11.50553,4.79503-3.13663,3.13668-4.79503,7.14753-4.79503,11.60832,0,4.43506,1.60691,8.30451,4.79503,11.50548,3.13673,3.13668,7.09614,4.80786,11.46699,4.80786"/><path class="cls-1" d="M1411.28043,203.09433c7.55878,0,13.71957,6.15977,13.71957,13.71957,0,7.5967-6.16079,13.71957-13.71957,13.71957-7.5967,0-13.71855-6.12287-13.71855-13.71957,0-7.55981,6.12184-13.71957,13.71855-13.71957Zm0,26.03911c6.76549,0,12.28366-5.47922,12.28366-12.31953,0-6.76447-5.51817-12.28264-12.28366-12.28264-6.84031,0-12.32056,5.51817-12.32056,12.28264,0,6.84031,5.48024,12.31953,12.32056,12.31953Zm2.15438-11.11013l3.55237,5.17789c.18961,.41612,0,.52886-.41509,.52886h-1.54968c-.34027,0-.52886-.11274-.75639-.37717l-3.4386-5.1041h-2.00372v5.1041c0,.30133-.11274,.37717-.45301,.37717h-1.62552c-.3782,0-.49094-.07584-.49094-.37717v-13.07797c0-.30133,.15066-.37717,.49094-.37717h4.7997c2.30607,0,4.91346,.90603,4.91346,4.15707,0,2.26712-1.39799,3.51547-3.02351,3.96849Zm-1.92685-1.88995c1.66242,0,2.49363-.71744,2.49363-2.07854,0-1.47383-.86913-2.04164-2.53155-2.04164h-2.64634v4.12018h2.68426Z"/></g></svg>